<svg xmlns="http://www.w3.org/2000/svg" viewBox="0 0 64 64" role="img" aria-label="Quotely">
  <rect width="64" height="64" rx="14" fill="#2927e8"/>
  <path d="M20 22.5c0-4.1 3.1-7.5 7.6-7.5 4.3 0 7.4 3.2 7.4 7.4 0 7.4-5.9 13.5-14.5 16.8l-2.2-4.5c4.4-1.9 7.1-4.2 8.2-7.2-3.8-.2-6.5-2.4-6.5-5z" fill="#fff"/>
  <path d="M35.5 22.5c0-4.1 3.1-7.5 7.6-7.5 4.3 0 7.4 3.2 7.4 7.4 0 7.4-5.9 13.5-14.5 16.8l-2.2-4.5c4.4-1.9 7.1-4.2 8.2-7.2-3.8-.2-6.5-2.4-6.5-5z" fill="#dff8f0"/>
  <path d="M19 47h27" stroke="#fff" stroke-width="4" stroke-linecap="round"/>
</svg>
