<svg xmlns="http://www.w3.org/2000/svg" viewBox="5 5 56 58" role="img" aria-label="Quotely">
  <path fill="#3730a3" fill-rule="evenodd" d="M32 8C18.7 8 8 18.7 8 32s10.7 24 24 24c3.5 0 6.8-.7 9.8-2.1l10.9 7.4c1.9 1.3 4.3-.9 3.1-2.9l-6.3-10.7A23.9 23.9 0 0 0 56 32c0-2.4-.3-4.7-1-6.8H42.4V12c-3.2-2.5-6.8-4-10.4-4Zm0 13.1c-6 0-10.9 4.9-10.9 10.9S26 42.9 32 42.9 42.9 38 42.9 32 38 21.1 32 21.1Z"/>
  <path fill="#3730a3" opacity=".86" d="M45.6 14.4v8.4h8.9l-8.9-8.4Z"/>
  <path d="M25.2 30h14.4M25.2 35.6h10.8" fill="none" stroke="#081f63" stroke-linecap="round" stroke-width="3.6"/>
</svg>
